<svg width="36" height="36" viewBox="0 0 36 36" fill="none" xmlns="http://www.w3.org/2000/svg">
<path d="M30.5625 32.9415H2.25485C1.59307 32.9415 1.05469 32.4031 1.05469 31.7414V15.2666C1.05469 14.6048 1.59307 14.0664 2.25485 14.0664H2.91213C3.20344 14.0664 3.43948 13.8304 3.43948 13.5391C3.43948 13.2478 3.20344 13.0117 2.91213 13.0117H2.25485C1.01159 13.0117 0 14.0232 0 15.2666V31.7414C0 32.9847 1.01159 33.9962 2.25485 33.9962H30.5625C30.8538 33.9962 31.0899 33.7602 31.0899 33.4689C31.0899 33.1776 30.8538 32.9415 30.5625 32.9415Z" fill="#FF2B85"/>
<path d="M33.7451 13.0117H4.99219C4.70088 13.0117 4.46484 13.2478 4.46484 13.5391C4.46484 13.8304 4.70088 14.0664 4.99219 14.0664H33.7451C34.4069 14.0664 34.9453 14.6048 34.9453 15.2666V31.7414C34.9453 32.4031 34.4069 32.9415 33.7451 32.9415H32.789C32.4977 32.9415 32.2617 33.1776 32.2617 33.4689C32.2617 33.7602 32.4977 33.9962 32.789 33.9962H33.7451C34.9886 33.9962 36 32.9847 36 31.7414V15.2666C36 14.0232 34.9885 13.0117 33.7451 13.0117Z" fill="#FF2B85"/>
<path d="M33.6542 14.8301H2.34576C2.05453 14.8301 1.81842 15.0661 1.81842 15.3574V31.6504C1.81842 31.9417 2.05446 32.1777 2.34576 32.1777H33.6542C33.9455 32.1777 34.1815 31.9417 34.1815 31.6504V15.3574C34.1815 15.0661 33.9455 14.8301 33.6542 14.8301ZM33.1268 31.123H2.87311V15.8848H33.1268V31.123Z" fill="#FF2B85"/>
<path d="M20.1168 28.9551H15.7025C15.4112 28.9551 15.1752 29.1911 15.1752 29.4824C15.1752 29.7737 15.4112 30.0098 15.7025 30.0098H20.1168C20.4081 30.0098 20.6441 29.7737 20.6441 29.4824C20.6441 29.1911 20.4081 28.9551 20.1168 28.9551Z" fill="#FF2B85"/>
<path d="M10.4655 17.0157H6.05124C5.75993 17.0157 5.5239 17.2518 5.5239 17.5431C5.5239 17.8344 5.75993 18.0704 6.05124 18.0704H10.4655C10.7568 18.0704 10.9929 17.8344 10.9929 17.5431C10.9929 17.2518 10.7568 17.0157 10.4655 17.0157Z" fill="#FF2B85"/>
<path d="M10.4655 22.9528H6.05124C5.75993 22.9528 5.5239 23.1888 5.5239 23.4801C5.5239 23.7714 5.75993 24.0074 6.05124 24.0074H10.4655C10.7568 24.0074 10.9929 23.7714 10.9929 23.4801C10.9929 23.1888 10.7568 22.9528 10.4655 22.9528Z" fill="#FF2B85"/>
<path d="M4.64261 17.812C4.3513 17.812 4.11526 18.0481 4.11526 18.3394V22.7536C4.11526 23.0449 4.3513 23.2809 4.64261 23.2809C4.93391 23.2809 5.16995 23.0449 5.16995 22.7536V18.3394C5.16995 18.0481 4.93391 17.812 4.64261 17.812Z" fill="#FF2B85"/>
<path d="M11.9054 17.812C11.6141 17.812 11.3781 18.0481 11.3781 18.3394V22.7536C11.3781 23.0449 11.6141 23.2809 11.9054 23.2809C12.1967 23.2809 12.4328 23.0449 12.4328 22.7536V18.3394C12.4328 18.0481 12.1967 17.812 11.9054 17.812Z" fill="#FF2B85"/>
<path d="M10.4655 28.9551H6.05124C5.75993 28.9551 5.5239 29.1911 5.5239 29.4824C5.5239 29.7737 5.75993 30.0098 6.05124 30.0098H10.4655C10.7568 30.0098 10.9929 29.7737 10.9929 29.4824C10.9929 29.1911 10.7568 28.9551 10.4655 28.9551Z" fill="#FF2B85"/>
<path d="M4.64261 23.8142C4.3513 23.8142 4.11526 24.0502 4.11526 24.3416V28.7558C4.11526 29.0471 4.3513 29.2832 4.64261 29.2832C4.93391 29.2832 5.16995 29.0471 5.16995 28.7558V24.3416C5.16995 24.0504 4.93391 23.8142 4.64261 23.8142Z" fill="#FF2B85"/>
<path d="M11.9054 23.8142C11.6141 23.8142 11.3781 24.0502 11.3781 24.3416V28.7558C11.3781 29.0471 11.6141 29.2832 11.9054 29.2832C12.1967 29.2832 12.4328 29.0471 12.4328 28.7558V24.3416C12.4328 24.0504 12.1967 23.8142 11.9054 23.8142Z" fill="#FF2B85"/>
<path d="M20.1168 17.0157H15.7025C15.4112 17.0157 15.1752 17.2518 15.1752 17.5431C15.1752 17.8344 15.4112 18.0704 15.7025 18.0704H20.1168C20.4081 18.0704 20.6441 17.8344 20.6441 17.5431C20.6441 17.2518 20.4081 17.0157 20.1168 17.0157Z" fill="#FF2B85"/>
<path d="M20.1168 22.9528H15.7025C15.4112 22.9528 15.1752 23.1888 15.1752 23.4801C15.1752 23.7714 15.4112 24.0074 15.7025 24.0074H20.1168C20.4081 24.0074 20.6441 23.7714 20.6441 23.4801C20.6441 23.1888 20.4081 22.9528 20.1168 22.9528Z" fill="#FF2B85"/>
<path d="M14.294 17.812C14.0027 17.812 13.7667 18.0481 13.7667 18.3394V22.7536C13.7667 23.0449 14.0027 23.2809 14.294 23.2809C14.5853 23.2809 14.8214 23.0449 14.8214 22.7536V18.3394C14.8214 18.0481 14.5853 17.812 14.294 17.812Z" fill="#FF2B85"/>
<path d="M21.5568 17.812C21.2655 17.812 21.0295 18.0481 21.0295 18.3394V22.7536C21.0295 23.0449 21.2655 23.2809 21.5568 23.2809C21.8481 23.2809 22.0842 23.0449 22.0842 22.7536V18.3394C22.0842 18.0481 21.8481 17.812 21.5568 17.812Z" fill="#FF2B85"/>
<path d="M14.294 23.8142C14.0027 23.8142 13.7667 24.0502 13.7667 24.3416V28.7558C13.7667 29.0471 14.0027 29.2832 14.294 29.2832C14.5853 29.2832 14.8214 29.0471 14.8214 28.7558V24.3416C14.8214 24.0504 14.5853 23.8142 14.294 23.8142Z" fill="#FF2B85"/>
<path d="M21.5568 23.8142C21.2655 23.8142 21.0295 24.0502 21.0295 24.3416V28.7558C21.0295 29.0471 21.2655 29.2832 21.5568 29.2832C21.8481 29.2832 22.0842 29.0471 22.0842 28.7558V24.3416C22.0842 24.0504 21.8481 23.8142 21.5568 23.8142Z" fill="#FF2B85"/>
<path d="M29.7682 17.0157H25.354C25.0627 17.0157 24.8266 17.2518 24.8266 17.5431C24.8266 17.8344 25.0627 18.0704 25.354 18.0704H29.7682C30.0595 18.0704 30.2955 17.8344 30.2955 17.5431C30.2955 17.2518 30.0595 17.0157 29.7682 17.0157Z" fill="#FF2B85"/>
<path d="M29.7682 22.9528H25.354C25.0627 22.9528 24.8266 23.1888 24.8266 23.4801C24.8266 23.7714 25.0627 24.0074 25.354 24.0074H29.7682C30.0595 24.0074 30.2955 23.7714 30.2955 23.4801C30.2955 23.1888 30.0595 22.9528 29.7682 22.9528Z" fill="#FF2B85"/>
<path d="M23.9454 17.812C23.6541 17.812 23.4181 18.0481 23.4181 18.3394V22.7536C23.4181 23.0449 23.6541 23.2809 23.9454 23.2809C24.2367 23.2809 24.4727 23.0449 24.4727 22.7536V18.3394C24.4727 18.0481 24.2366 17.812 23.9454 17.812Z" fill="#FF2B85"/>
<path d="M31.2083 17.812C30.917 17.812 30.6809 18.0481 30.6809 18.3394V22.7536C30.6809 23.0449 30.917 23.2809 31.2083 23.2809C31.4996 23.2809 31.7356 23.0449 31.7356 22.7536V18.3394C31.7356 18.0481 31.4995 17.812 31.2083 17.812Z" fill="#FF2B85"/>
<path d="M29.7682 28.9551H25.354C25.0627 28.9551 24.8266 29.1911 24.8266 29.4824C24.8266 29.7737 25.0627 30.0098 25.354 30.0098H29.7682C30.0595 30.0098 30.2955 29.7737 30.2955 29.4824C30.2955 29.1911 30.0595 28.9551 29.7682 28.9551Z" fill="#FF2B85"/>
<path d="M23.9454 23.8142C23.6541 23.8142 23.4181 24.0502 23.4181 24.3416V28.7558C23.4181 29.0471 23.6541 29.2832 23.9454 29.2832C24.2367 29.2832 24.4727 29.0471 24.4727 28.7558V24.3416C24.4727 24.0504 24.2366 23.8142 23.9454 23.8142Z" fill="#FF2B85"/>
<path d="M31.2083 23.8142C30.917 23.8142 30.6809 24.0502 30.6809 24.3416V28.7558C30.6809 29.0471 30.917 29.2832 31.2083 29.2832C31.4996 29.2832 31.7356 29.0471 31.7356 28.7558V24.3416C31.7356 24.0504 31.4995 23.8142 31.2083 23.8142Z" fill="#FF2B85"/>
<path d="M23.1338 7.13477C23.452 6.82462 23.5643 6.36935 23.427 5.94677C23.2897 5.52419 22.9312 5.22192 22.4915 5.15807L20.9708 4.93701C20.6824 4.89454 20.415 5.09472 20.3731 5.383C20.3312 5.67128 20.5308 5.93882 20.8191 5.98073L22.3398 6.20179C22.3823 6.20798 22.4107 6.23189 22.4239 6.27274C22.4372 6.31366 22.4284 6.34966 22.3976 6.37961L21.0834 7.66064C20.5769 8.15437 20.3459 8.86544 20.4655 9.56266L20.7757 11.3714C20.7829 11.4138 20.7689 11.4481 20.7342 11.4733C20.6994 11.4985 20.6625 11.5015 20.6244 11.4813L18.5395 10.3851C18.2016 10.2074 17.7985 10.2075 17.4608 10.385L15.3759 11.4812C15.3378 11.5013 15.3009 11.4986 15.266 11.4733C15.2312 11.448 15.2173 11.4137 15.2246 11.3713L15.5346 9.56259C15.6542 8.86537 15.4233 8.15437 14.9167 7.66049L13.6026 6.37961C13.5718 6.34959 13.5629 6.31366 13.5762 6.27267C13.5895 6.23182 13.6179 6.20791 13.6604 6.20172L15.4764 5.93777C16.1765 5.83617 16.7814 5.39664 17.0945 4.76221L17.9066 3.11662C17.9257 3.07809 17.9571 3.05854 18.0001 3.05854C18.043 3.05854 18.0745 3.07809 18.0935 3.11662L18.799 4.54607C18.9279 4.80721 19.2441 4.91437 19.5053 4.78556C19.7665 4.65667 19.8737 4.34041 19.7448 4.07927L19.0393 2.64982C18.8426 2.25135 18.4444 2.00378 18.0001 2.00378C17.5558 2.00378 17.1575 2.25135 16.9609 2.64982L16.1487 4.29541C15.9892 4.61849 15.6813 4.84223 15.3247 4.89405L13.5087 5.158C13.069 5.22185 12.7105 5.52405 12.5732 5.9467C12.4358 6.36935 12.5482 6.82455 12.8664 7.13477L14.1805 8.41565C14.4384 8.66709 14.556 9.0292 14.4951 9.38421L14.1851 11.1929C14.1099 11.6308 14.2865 12.0652 14.646 12.3264C15.0055 12.5876 15.4732 12.6213 15.8666 12.4147L17.9516 11.3184C17.982 11.3025 18.0182 11.3024 18.0485 11.3185L20.1336 12.4147C20.3046 12.5046 20.4896 12.549 20.6739 12.549C20.9132 12.549 21.1509 12.474 21.3541 12.3264C21.7136 12.0652 21.8903 11.6308 21.8152 11.1929L21.505 9.38421C21.4441 9.02913 21.5618 8.66709 21.8197 8.41572L23.1338 7.13477Z" fill="#FF2B85"/>
<path d="M12.1261 7.87233C12.4176 7.5882 12.5206 7.17111 12.3948 6.78397C12.269 6.39675 11.9406 6.11993 11.5378 6.06143L10.0013 5.83812C9.72628 5.79818 9.48855 5.6255 9.3655 5.37617L8.67841 3.98391C8.4982 3.61885 8.13335 3.39209 7.72631 3.39209C7.3192 3.39209 6.95442 3.61892 6.77435 3.98391L6.08725 5.37617C5.96421 5.6255 5.72648 5.79818 5.45135 5.83812L3.91495 6.06143C3.51213 6.12 3.18377 6.39682 3.05791 6.7839C2.93212 7.17111 3.03506 7.58813 3.3265 7.87233L4.43814 8.95606C4.63727 9.15012 4.72804 9.42954 4.68107 9.70362L4.4186 11.2338C4.34983 11.635 4.51169 12.0329 4.84096 12.2722C5.17038 12.5113 5.59872 12.5423 5.95907 12.353L7.72954 11.4256L9.49354 12.353C9.65027 12.4354 9.81986 12.476 9.98854 12.476C10.2078 12.476 10.4256 12.4073 10.6117 12.2721C10.941 12.0329 11.1027 11.635 11.0339 11.2338L10.7715 9.70355C10.7245 9.42961 10.8153 9.15012 11.0144 8.95606L12.1261 7.87233ZM10.2782 8.20076C9.83048 8.63719 9.62629 9.26572 9.73197 9.88186L9.99564 11.4149C9.99431 11.4173 9.98917 11.4212 9.98425 11.4194L8.22018 10.492C7.91088 10.3294 7.5416 10.3296 7.23222 10.492L5.4659 11.4215C5.46323 11.4209 5.45824 11.4173 5.4581 11.4121L5.7205 9.88193C5.82625 9.26565 5.62207 8.63719 5.17431 8.20076L4.05986 7.11556C4.05958 7.11282 4.06155 7.10691 4.06654 7.10522L5.60294 6.88191C6.22162 6.79212 6.75621 6.40371 7.03296 5.84304L7.72068 4.44776C7.72321 4.44657 7.7294 4.44657 7.72982 4.44622C7.72982 4.44622 7.73095 4.44748 7.73257 4.45079L8.41966 5.84304C8.69641 6.40379 9.23099 6.79212 9.8496 6.88191L11.3892 7.10494C11.391 7.10691 11.393 7.11282 11.3899 7.11711L10.2782 8.20076Z" fill="#FF2B85"/>
<path d="M32.6737 7.87231C32.9652 7.58818 33.0681 7.17109 32.9423 6.78395C32.8165 6.39681 32.4881 6.12006 32.0854 6.06156L30.5488 5.83824C30.2738 5.79831 30.036 5.62562 29.913 5.37629L29.2259 3.9841C29.0457 3.61904 28.681 3.39221 28.2739 3.39221C28.2739 3.39221 28.2739 3.39221 28.2739 3.39221C27.8669 3.39221 27.502 3.61904 27.3218 3.98403L26.6347 5.37629C26.5117 5.62562 26.274 5.79831 25.9988 5.83824L24.4625 6.06156C24.0597 6.12006 23.7312 6.39695 23.6055 6.78409C23.4796 7.17123 23.5826 7.58832 23.874 7.87245L24.9857 8.95604C25.1848 9.1501 25.2756 9.42952 25.2286 9.7036L24.9662 11.2337C24.8974 11.6349 25.0591 12.0328 25.3884 12.2721C25.5746 12.4074 25.7923 12.476 26.0116 12.476C26.1802 12.476 26.3499 12.4354 26.5066 12.353L28.277 11.4256L30.0411 12.353C30.4013 12.5424 30.8296 12.5114 31.1591 12.2722C31.4884 12.0329 31.6502 11.635 31.5814 11.2338L31.319 9.70353C31.2721 9.42959 31.3628 9.1501 31.562 8.95604L32.6737 7.87231ZM30.8256 8.20074C30.3779 8.63717 30.1737 9.2657 30.2794 9.88185L30.5431 11.4149C30.5416 11.4173 30.5367 11.4212 30.5317 11.4194L28.7675 10.4919C28.4582 10.3294 28.0889 10.3296 27.7796 10.492L26.0133 11.4215C26.0106 11.4209 26.0056 11.4173 26.0055 11.4121L26.2679 9.88192C26.3737 9.26563 26.1695 8.63717 25.7217 8.20074L24.6073 7.11554C24.6071 7.1128 24.609 7.10689 24.614 7.1052L26.1503 6.88189C26.769 6.7921 27.3036 6.4037 27.5804 5.84302L28.2682 4.44774C28.2706 4.44655 28.2768 4.44655 28.2772 4.44613C28.2772 4.44613 28.2784 4.44746 28.28 4.4507C28.28 4.45077 28.28 4.45077 28.28 4.45077L28.9671 5.84302C29.2438 6.40377 29.7784 6.7921 30.397 6.88189L31.9366 7.10485C31.9384 7.10689 31.9404 7.1128 31.9374 7.11709L30.8256 8.20074Z" fill="#FF2B85"/>
</svg>
