<svg width="50" height="50" viewBox="0 0 50 50" fill="none" xmlns="http://www.w3.org/2000/svg">
<g clip-path="url(#clip0)">
<path d="M49.869 19.1779C49.5398 18.1655 48.6418 17.4487 47.5836 17.3529L33.1501 16.0425L27.4458 2.68783C27.0247 1.70668 26.0664 1.07343 24.9998 1.07343C23.9332 1.07343 22.9746 1.70668 22.5561 2.68783L16.8519 16.0425L2.41606 17.3529C1.35784 17.4506 0.461754 18.1674 0.130632 19.1779C-0.198581 20.1903 0.105455 21.3008 0.905792 22.0027L11.8164 31.5698L8.5994 45.7386C8.36403 46.7804 8.7684 47.8577 9.63282 48.4825C10.0975 48.8201 10.6434 48.9887 11.1911 48.9887C11.6619 48.9887 12.133 48.8636 12.5538 48.6118L24.9998 41.17L37.4436 48.6118C38.3564 49.1573 39.5043 49.1074 40.3668 48.4825C41.2312 47.8577 41.6356 46.7804 41.4002 45.7386L38.1833 31.5698L49.0938 22.0027C49.8938 21.3008 50.1982 20.1926 49.869 19.1779Z" fill="#F433A0"/>
</g>
<defs>
<clipPath id="clip0">
<rect width="50" height="50" fill="white"/>
</clipPath>
</defs>
</svg>
