<svg width="50" height="50" viewBox="0 0 50 50" fill="none" xmlns="http://www.w3.org/2000/svg">
<g style="mix-blend-mode:screen">
<g clip-path="url(#clip0)">
<path d="M11.1913 48.989C10.6435 48.989 10.0995 48.8181 9.63525 48.4824C8.77044 47.8556 8.36645 46.7783 8.60182 45.7388L11.8185 31.5695L0.909671 22.0028C0.107801 21.3027 -0.198527 20.1942 0.13069 19.1798C0.459906 18.1674 1.35562 17.4506 2.41613 17.3525L16.8498 16.0421L22.5563 2.68768C22.9771 1.70651 23.9354 1.07288 25.0001 1.07288C26.0648 1.07288 27.0231 1.70651 27.4439 2.68539L33.1504 16.0421L47.5818 17.3525C48.6446 17.4483 49.5403 18.1674 49.8695 19.1798C50.1987 20.1922 49.8943 21.3027 49.0924 22.0028L38.1837 31.5676L41.4003 45.7365C41.636 46.7783 41.2317 47.8556 40.3672 48.4805C39.5047 49.1053 38.3546 49.1534 37.4463 48.6075L25.0001 41.1698L12.554 48.6117C12.1332 48.8616 11.6643 48.989 11.1913 48.989ZM25.0001 37.9658C25.4731 37.9658 25.9416 38.0928 26.3627 38.3427L38.1089 45.368L35.0731 31.9945C34.8564 31.0427 35.1795 30.0489 35.915 29.405L46.2153 20.3715L32.5877 19.134C31.6066 19.0444 30.7627 18.4275 30.3793 17.5234L25.0001 4.92086L19.6144 17.5253C19.2352 18.4233 18.3914 19.0402 17.4125 19.1298L3.78297 20.3673L14.0829 29.4008C14.8207 30.0466 15.1434 31.0385 14.9248 31.9926L11.8913 45.3657L23.6375 38.3427C24.0582 38.0928 24.5271 37.9658 25.0001 37.9658ZM16.7395 16.3004C16.7395 16.3004 16.7395 16.3027 16.7373 16.3046L16.7395 16.3004ZM33.2565 16.2943L33.2588 16.2985C33.2588 16.2962 33.2588 16.2962 33.2565 16.2943Z" fill="#5648E3"/>
</g>
</g>
<defs>
<clipPath id="clip0">
<rect width="50" height="50" fill="white"/>
</clipPath>
</defs>
</svg>
