<svg width="36" height="36" viewBox="0 0 36 36" fill="none" xmlns="http://www.w3.org/2000/svg">
<path d="M19.518 18.3318L11.7516 12.714C11.514 12.543 11.1846 12.5682 10.9758 12.7764C10.767 12.9852 10.7412 13.314 10.9134 13.5522L16.5324 21.3198C16.9008 21.8268 17.4702 22.1454 18.0948 22.194C18.1512 22.1982 18.207 22.2 18.2622 22.2C18.8274 22.2 19.371 21.9768 19.7736 21.5736C20.2158 21.1314 20.442 20.52 20.3934 19.8954C20.3448 19.2708 20.0262 18.7014 19.518 18.3318ZM18.9252 20.7252C18.7308 20.919 18.4602 21.018 18.1884 20.997C17.9148 20.976 17.6646 20.8356 17.5038 20.6148L14.076 15.8766L18.813 19.3032C19.0356 19.4652 19.1754 19.7154 19.197 19.9896C19.2186 20.2626 19.119 20.5314 18.9252 20.7252Z" fill="#FF2B85"/>
<path d="M33.6486 15.6132C33.648 15.6114 33.6486 15.609 33.648 15.6072C33.6474 15.6048 33.6456 15.603 33.645 15.6006C33.2778 14.2332 32.7342 12.9384 32.043 11.7384C32.037 11.7258 32.037 11.7126 32.0298 11.7C32.0226 11.688 32.0112 11.6814 32.0034 11.67C31.3968 10.629 30.6792 9.6618 29.8638 8.7846L31.152 7.4964L32.001 8.3448L34.5462 5.7996L32.001 3.2538L29.4552 5.7996L30.3036 6.648L29.0154 7.9362C28.1382 7.1214 27.171 6.4032 26.13 5.7966C26.1186 5.7888 26.112 5.7774 26.1 5.7702C26.088 5.763 26.0736 5.7636 26.0616 5.757C24.8616 5.0652 23.5668 4.5222 22.2 4.155C22.1976 4.1544 22.1958 4.1526 22.1934 4.152C22.191 4.1514 22.1892 4.152 22.1874 4.152C21.4122 3.9444 20.6154 3.7932 19.8 3.7026V3H20.7C21.5274 3 22.2 2.3274 22.2 1.5C22.2 0.6726 21.5274 0 20.7 0H15.3C14.4726 0 13.8 0.6726 13.8 1.5C13.8 2.3274 14.4726 3 15.3 3H16.2V3.7026C15.3846 3.7932 14.5878 3.9444 13.8132 4.152C13.8108 4.1526 13.809 4.152 13.8072 4.1526C13.8048 4.1532 13.803 4.155 13.8006 4.1556C12.4338 4.5228 11.139 5.0664 9.939 5.7576C9.9264 5.7636 9.9126 5.7636 9.9 5.7708C9.888 5.778 9.8814 5.7894 9.87 5.7972C8.8296 6.4038 7.8618 7.1214 6.9846 7.9368L5.6964 6.648L6.5448 5.7996L3.999 3.2538L1.4538 5.7996L3.999 8.3448L4.848 7.4964L6.1362 8.7846C5.3214 9.6618 4.6032 10.629 3.9972 11.67C3.9894 11.6814 3.9774 11.688 3.9708 11.7C3.9636 11.7126 3.9642 11.7258 3.9576 11.7384C3.2658 12.9384 2.7228 14.2332 2.3556 15.6006C2.355 15.603 2.3532 15.6048 2.3526 15.6072C2.352 15.609 2.3526 15.6114 2.352 15.6132C1.9938 16.95 1.8 18.3522 1.8 19.8C1.8 21.2478 1.9938 22.65 2.3514 23.9868C2.352 23.9892 2.3514 23.991 2.352 23.9928C2.3526 23.9958 2.355 23.9982 2.3556 24.0012C2.7228 25.368 3.2658 26.6622 3.957 27.8616C3.963 27.8742 3.963 27.8874 3.9702 27.9C3.9804 27.9174 3.9948 27.9306 4.0062 27.9468C4.7052 29.1426 5.55 30.243 6.5208 31.2192C6.5304 31.2306 6.534 31.2444 6.5448 31.2552C6.5556 31.266 6.5694 31.2696 6.5808 31.2792C7.5612 32.2548 8.6676 33.1026 9.87 33.8034C9.8814 33.8112 9.888 33.8226 9.9 33.8298C9.918 33.84 9.9378 33.8448 9.9564 33.8532C11.151 34.5396 12.4404 35.0796 13.8006 35.445C13.803 35.4456 13.8048 35.4474 13.8072 35.448C13.8102 35.4486 13.8132 35.4486 13.8162 35.4492C15.1518 35.8068 16.5534 36 18 36C19.4466 36 20.8482 35.8068 22.1838 35.4492C22.1868 35.4486 22.1898 35.4492 22.1928 35.448C22.1952 35.4474 22.197 35.4456 22.1994 35.445C23.5596 35.0796 24.8484 34.5396 26.0436 33.8532C26.0622 33.8448 26.082 33.8406 26.1 33.8298C26.112 33.8226 26.1186 33.8112 26.13 33.8034C27.3324 33.1026 28.4382 32.2548 29.4192 31.2792C29.4306 31.2696 29.4444 31.266 29.4552 31.2552C29.466 31.2444 29.4696 31.23 29.4792 31.2192C30.45 30.243 31.2948 29.1426 31.9938 27.9468C32.0052 27.9306 32.0196 27.918 32.0298 27.9C32.037 27.8874 32.0364 27.8742 32.043 27.8616C32.7342 26.6622 33.2772 25.368 33.6444 24.0012C33.645 23.9982 33.6474 23.9958 33.648 23.9928C33.6486 23.991 33.648 23.9886 33.6486 23.9868C34.0062 22.65 34.2 21.2478 34.2 19.8C34.2 18.3522 34.0062 16.95 33.6486 15.6132ZM32.001 4.9506L32.8494 5.7996L32.001 6.648L31.152 5.7996L32.001 4.9506ZM3.1506 5.7996L3.999 4.9506L4.848 5.7996L3.999 6.648L3.1506 5.7996ZM31.1742 23.9514L32.3232 24.2592C32.0502 25.134 31.6962 25.9734 31.275 26.772L30.2508 26.1804C29.964 26.0142 29.5968 26.112 29.4312 26.4C29.2656 26.6874 29.364 27.054 29.6508 27.2196L30.6726 27.8094C30.1848 28.5786 29.631 29.301 29.0154 29.967L28.182 29.1336C27.9474 28.899 27.5682 28.899 27.3336 29.1336C27.099 29.3682 27.099 29.7474 27.3336 29.982L28.167 30.8154C27.501 31.431 26.7786 31.9848 26.0094 32.4726L25.4196 31.4508C25.2534 31.1628 24.8856 31.0644 24.6 31.2312C24.3126 31.3968 24.2142 31.764 24.3804 32.0508L24.972 33.075C24.1734 33.4962 23.3346 33.8502 22.4592 34.1232L22.1514 32.9748C22.0656 32.6544 21.7368 32.4636 21.4164 32.5506C21.0966 32.6364 20.9064 32.9652 20.9922 33.2856L21.2988 34.4304C20.4252 34.6272 19.5234 34.7484 18.6 34.785V33.6C18.6 33.2682 18.3318 33 18 33C17.6682 33 17.4 33.2682 17.4 33.6V34.785C16.4766 34.7484 15.5748 34.6272 14.7012 34.4304L15.0078 33.2856C15.0936 32.9658 14.9034 32.6364 14.5836 32.5506C14.2638 32.4642 13.9344 32.6544 13.8486 32.9748L13.5408 34.1232C12.666 33.8502 11.8266 33.4962 11.028 33.075L11.6196 32.0508C11.7852 31.7634 11.6868 31.3968 11.4 31.2312C11.1132 31.065 10.746 31.1628 10.5804 31.4508L9.9906 32.4726C9.2214 31.9848 8.499 31.431 7.833 30.8154L8.6664 29.982C8.901 29.7474 8.901 29.3682 8.6664 29.1336C8.4318 28.899 8.0526 28.899 7.818 29.1336L6.9846 29.967C6.369 29.301 5.8152 28.5786 5.3274 27.8094L6.3492 27.2196C6.6366 27.054 6.735 26.6868 6.5688 26.4C6.4026 26.112 6.0348 26.0136 5.7492 26.1804L4.725 26.772C4.3038 25.9734 3.9498 25.1346 3.6768 24.2592L4.8258 23.9514C5.1456 23.8656 5.3358 23.5368 5.25 23.2164C5.1648 22.896 4.836 22.7052 4.515 22.7922L3.3696 23.0988C3.1734 22.2252 3.0516 21.3234 3.015 20.4H4.2C4.5318 20.4 4.8 20.1318 4.8 19.8C4.8 19.4682 4.5318 19.2 4.2 19.2H3.015C3.0516 18.2766 3.1728 17.3748 3.3696 16.5012L4.515 16.8084C4.5672 16.8222 4.6194 16.8288 4.671 16.8288C4.9356 16.8288 5.178 16.6524 5.25 16.3842C5.3364 16.0644 5.1456 15.735 4.8258 15.6492L3.6768 15.3408C3.9498 14.466 4.3038 13.6266 4.725 12.828L5.7492 13.4196C5.8428 13.4742 5.946 13.5 6.048 13.5C6.2556 13.5 6.4572 13.3926 6.5682 13.2C6.7338 12.9126 6.6354 12.546 6.3486 12.3804L5.3268 11.7906C5.8146 11.0214 6.3684 10.299 6.984 9.633L7.8174 10.4664C7.9344 10.5834 8.088 10.6422 8.2416 10.6422C8.3952 10.6422 8.5488 10.5834 8.6658 10.4664C8.9004 10.2318 8.9004 9.8526 8.6658 9.618L7.8324 8.7846C8.4984 8.1696 9.2208 7.6152 9.99 7.1274L10.5798 8.1498C10.6914 8.3418 10.8924 8.4498 11.1 8.4498C11.202 8.4498 11.3052 8.424 11.3994 8.3694C11.6868 8.2038 11.7852 7.8366 11.619 7.5498L11.0274 6.525C11.826 6.1038 12.6648 5.7498 13.5402 5.4768L13.848 6.6258C13.9194 6.8934 14.1618 7.0704 14.427 7.0704C14.4786 7.0704 14.5308 7.0638 14.583 7.05C14.9028 6.9642 15.093 6.6354 15.0072 6.315L14.7006 5.1696C15.4038 5.0112 16.1244 4.9026 16.8606 4.8474C17.0466 4.8336 17.2146 4.8234 17.3772 4.8156C17.385 4.8156 17.3922 4.8156 17.4 4.815V6C17.4 6.3318 17.6682 6.6 18 6.6C18.3318 6.6 18.6 6.3318 18.6 6V4.815C18.6078 4.815 18.615 4.815 18.6228 4.8156C18.7854 4.8234 18.9528 4.8336 19.1394 4.8474C19.8756 4.9032 20.5968 5.0112 21.2994 5.1696L20.9928 6.315C20.907 6.6348 21.0972 6.9642 21.417 7.05C21.4692 7.0638 21.5214 7.0704 21.573 7.0704C21.8376 7.0704 22.0806 6.8934 22.152 6.6258L22.4598 5.4768C23.3346 5.7498 24.174 6.1038 24.9726 6.525L24.381 7.5498C24.2154 7.8372 24.3138 8.2038 24.6006 8.3694C24.6948 8.424 24.798 8.4498 24.9 8.4498C25.1076 8.4498 25.3092 8.3418 25.4202 8.1498L26.01 7.1274C26.7792 7.6152 27.5016 8.1696 28.1676 8.7846L27.3342 9.618C27.0996 9.8526 27.0996 10.2318 27.3342 10.4664C27.4512 10.5834 27.6048 10.6422 27.7584 10.6422C27.912 10.6422 28.0656 10.5834 28.1826 10.4664L29.016 9.633C29.6316 10.299 30.1854 11.0214 30.6732 11.7906L29.6514 12.3804C29.364 12.546 29.2656 12.9126 29.4318 13.2C29.5434 13.3926 29.7444 13.5 29.952 13.5C30.054 13.5 30.1572 13.4742 30.2514 13.4196L31.2756 12.828C31.6968 13.6266 32.0508 14.4654 32.3238 15.3408L31.1748 15.6492C30.855 15.735 30.6642 16.0638 30.7506 16.3842C30.8226 16.6524 31.0644 16.8288 31.3296 16.8288C31.3812 16.8288 31.4334 16.8222 31.4856 16.8084L32.631 16.5012C32.8278 17.3748 32.949 18.2766 32.9856 19.2H31.8C31.4682 19.2 31.2 19.4682 31.2 19.8C31.2 20.1318 31.4682 20.4 31.8 20.4H32.985C32.9484 21.3234 32.8272 22.2252 32.6304 23.0994L31.485 22.7928C31.1664 22.7064 30.8358 22.8972 30.75 23.217C30.6642 23.5368 30.8544 23.8656 31.1742 23.9514ZM17.4 3.6132V1.8H15.3C15.135 1.8 15 1.665 15 1.5C15 1.335 15.135 1.2 15.3 1.2H20.7C20.865 1.2 21 1.335 21 1.5C21 1.665 20.865 1.8 20.7 1.8H18.6V3.6132C18.39 3.6042 18.1926 3.6 18 3.6C17.8074 3.6 17.61 3.6042 17.4 3.6132Z" fill="#FF2B85"/>
</svg>
